<svg width="315" height="77" viewBox="0 0 315 77" fill="none" xmlns="http://www.w3.org/2000/svg">
<rect width="315" height="77" rx="10" fill="#0F4FC1"/>
<path d="M130.78 46L127.8 40.54C129.14 39.78 129.96 38.52 129.96 36.84C129.96 34.04 128.14 32 124.58 32H119.2V46H122.62V41.32H124.58C124.66 41.32 124.72 41.32 124.78 41.32L127.14 46H130.78ZM122.62 35.24H124.58C125.72 35.24 126.5 35.8 126.5 36.84C126.5 38.04 125.58 38.44 124.58 38.44H122.62V35.24ZM136.123 35.62C133.223 35.62 130.883 37.94 130.883 40.94C130.883 44.1 133.163 46.26 136.583 46.26C138.563 46.26 140.123 45.38 140.943 44.12L138.663 42.76C138.343 43.14 137.623 43.64 136.583 43.64C135.343 43.64 134.383 43.1 134.043 41.92H141.363C141.763 37.66 139.123 35.62 136.123 35.62ZM134.043 39.96C134.343 38.84 135.203 38.24 136.223 38.24C137.343 38.24 138.183 38.78 138.423 39.96H134.043ZM150.146 35.86V36.96C149.586 36.18 148.686 35.62 147.306 35.62C144.186 35.62 142.426 37.92 142.426 40.58C142.426 43.24 144.206 45.54 147.306 45.54C148.706 45.54 149.586 45.02 150.146 44.3V44.76C150.146 46.34 149.546 47.42 147.566 47.42C146.406 47.42 145.526 46.96 145.206 46.48L142.786 47.92C143.566 49.18 145.506 50.04 147.706 50.04C151.306 50.04 153.386 48 153.386 45.12V35.86H150.146ZM147.866 42.74C146.526 42.74 145.706 41.82 145.706 40.58C145.706 39.34 146.526 38.42 147.866 38.42C149.086 38.42 150.026 39.24 150.026 40.58C150.026 41.92 149.086 42.74 147.866 42.74ZM155.584 46H158.824V35.86H155.584V46ZM157.204 34.74C158.144 34.74 158.904 33.96 158.904 33.02C158.904 32.08 158.144 31.32 157.204 31.32C156.264 31.32 155.504 32.08 155.504 33.02C155.504 33.96 156.264 34.74 157.204 34.74ZM165.614 39.72C164.814 39.56 163.714 39.52 163.714 38.86C163.714 38.3 164.314 38.12 164.954 38.12C165.554 38.12 165.994 38.38 166.114 38.86L168.834 38.2C168.394 36.48 166.674 35.62 164.934 35.62C162.394 35.62 160.574 36.84 160.574 38.96C160.574 40.94 161.634 41.64 163.574 42.08C164.774 42.34 165.834 42.3 165.834 43C165.834 43.52 165.294 43.72 164.614 43.72C163.694 43.72 163.294 43.3 163.174 42.9L160.234 43.82C160.654 45.6 162.614 46.26 164.654 46.26C167.614 46.26 169.194 45 169.194 42.86C169.194 41 168.174 40.26 165.614 39.72ZM176.411 38.54V35.86H174.411V33.74H171.171V35.86H169.911V38.54H171.171V42.08C171.171 44.06 171.891 46.18 175.011 46.18C175.651 46.18 176.071 46.12 176.411 46V43.28C176.251 43.3 176.051 43.34 175.791 43.34C174.791 43.34 174.411 42.8 174.411 41.74V38.54H176.411ZM182.959 35.62C180.059 35.62 177.719 37.94 177.719 40.94C177.719 44.1 179.999 46.26 183.419 46.26C185.399 46.26 186.959 45.38 187.779 44.12L185.499 42.76C185.179 43.14 184.459 43.64 183.419 43.64C182.179 43.64 181.219 43.1 180.879 41.92H188.199C188.599 37.66 185.959 35.62 182.959 35.62ZM180.879 39.96C181.179 38.84 182.039 38.24 183.059 38.24C184.179 38.24 185.019 38.78 185.259 39.96H180.879ZM193.102 37.4V35.86H189.862V46H193.102V42C193.102 40.3 193.422 38.66 196.302 39.1V35.62C195.102 35.62 193.822 36.26 193.102 37.4Z" fill="white"/>
</svg>
