<svg width="162" height="42" viewBox="0 0 162 42" fill="none" xmlns="http://www.w3.org/2000/svg">
<path d="M0.7 33H6.415V10.185H0.7V33ZM3.535 6.855C5.245 6.855 6.595 5.505 6.595 3.795C6.595 2.13 5.245 0.779999 3.535 0.779999C1.87 0.779999 0.52 2.13 0.52 3.795C0.52 5.505 1.87 6.855 3.535 6.855Z" fill="#30C57B"/>
<path d="M24.1482 9.645C20.8182 9.645 18.7482 11.13 17.4882 12.975V10.185H11.8182V33H17.4882V20.31C17.4882 17.7 18.9732 15.18 22.3482 15.18C25.5882 15.18 26.8032 17.385 26.8032 20.31V33H32.5182V19.14C32.5182 14.325 29.9082 9.645 24.1482 9.645ZM52.0278 10.185L46.5828 26.385L41.1828 10.185H35.0178L43.4778 33H49.7328L58.1928 10.185H52.0278ZM70.9904 9.645C64.6904 9.645 59.3354 14.46 59.3354 21.615C59.3354 28.545 64.3304 33.585 71.8904 33.585C76.2104 33.585 79.7204 31.515 81.5654 28.95L76.9754 26.25C76.3004 27.105 74.5004 28.5 71.8904 28.5C68.7404 28.5 66.2204 26.88 65.4104 23.82H82.3304C83.3654 14.82 77.8754 9.645 70.9904 9.645ZM65.4104 19.41C66.0854 16.485 68.2904 14.73 71.0804 14.73C74.1404 14.73 76.1654 16.44 76.7504 19.41H65.4104ZM95.9302 19.365C94.1302 18.96 91.0702 18.825 91.0702 16.8C91.0702 15.09 92.7802 14.46 94.4452 14.46C96.6052 14.46 97.7302 15.63 98.0002 16.8L103.175 15.54C102.23 11.58 98.3602 9.645 94.4452 9.645C89.0902 9.645 85.4902 12.48 85.4902 16.8C85.4902 20.715 87.7402 22.83 92.1502 23.73C94.8502 24.315 98.1352 24.225 98.1352 26.385C98.1352 27.915 96.7852 28.77 94.4002 28.77C91.0702 28.77 90.1702 27.24 89.9902 26.295L84.5002 28.005C85.5352 31.83 89.9452 33.585 94.3102 33.585C100.7 33.585 103.985 30.48 103.985 25.98C103.985 22.11 101.51 20.58 95.9302 19.365ZM119.381 15.405V10.185H114.521V5.415H108.806V10.185H105.566V15.405H108.806V24.675C108.806 29.4 111.146 33.315 116.996 33.315C118.166 33.315 118.796 33.18 119.381 33V27.78C118.976 27.825 118.436 27.87 118.031 27.87C114.881 27.87 114.521 26.34 114.521 23.73V15.405H119.381ZM134.436 5.82C134.796 5.82 135.111 5.865 135.426 5.865V1.095C134.661 0.959999 134.166 0.914997 133.041 0.914997C126.876 0.914997 124.806 5.505 124.806 10.185H121.611V15.405H124.806V33H130.521V15.405H135.426V10.185C130.521 10.185 130.521 10.185 130.521 10.185C130.521 7.395 131.511 5.82 134.436 5.82ZM154.869 10.185L149.514 25.26L143.619 10.185H137.454L146.904 31.65L142.719 41.685H148.569L161.034 10.185H154.869Z" fill="#0F4FC1"/>
</svg>
