<svg width="224" height="342" viewBox="0 0 224 342" fill="none" xmlns="http://www.w3.org/2000/svg">
<path d="M70.6769 226.168V213.245C70.6769 146.749 154.869 143.924 154.869 96.5242C154.869 75.9502 138.128 62.5176 113.25 62.5176C85.9799 62.5176 68.7804 77.3497 68.7804 98.3945V103.626C68.7804 108.858 65.9029 111.291 60.645 111.291L9.45208 109.368C4.67809 109.368 1.32974 106.975 1.32974 103.626V98.3945C1.32974 40.5049 47.2517 0.808838 114.702 0.808838C180.714 0.808838 223.262 38.1114 223.262 94.0914C223.262 173.497 137.631 173.981 137.631 217.509V226.128C137.631 231.36 134.753 234.251 129.495 234.251H78.8123C73.5413 234.29 70.6769 231.425 70.6769 226.168ZM66.3738 303.245C66.3738 282.2 85.0251 264.974 107.509 264.974C129.037 264.974 148.173 282.2 148.173 303.245C148.173 324.289 128.998 341.45 107.038 341.45C84.5281 341.45 66.3738 324.237 66.3738 303.245Z" fill="#92E3A9" stroke="#92E3A9" stroke-width="0.906631" stroke-miterlimit="10"/>
</svg>
